<mxfile host="app.diagrams.net" modified="2024-06-25T13:37:57.750Z" agent="Mozilla/5.0 (Windows NT 10.0; Win64; x64) AppleWebKit/537.36 (KHTML, like Gecko) Chrome/126.0.0.0 Safari/537.36" etag="UDFjDVy9gVSaYSbYCgkx" version="24.6.2" type="device" pages="4">
  <diagram name="Principal" id="wnHSF7XOj4xV3t1Gu1nn">
    <mxGraphModel dx="1050" dy="565" grid="1" gridSize="10" guides="1" tooltips="1" connect="1" arrows="1" fold="1" page="1" pageScale="1" pageWidth="827" pageHeight="1169" math="0" shadow="0">
      <root>
        <mxCell id="0" />
        <mxCell id="1" parent="0" />
        <mxCell id="vlH2Fg0dPawapllJiDyM-1" style="edgeStyle=orthogonalEdgeStyle;rounded=0;orthogonalLoop=1;jettySize=auto;html=1;exitX=0.5;exitY=1;exitDx=0;exitDy=0;exitPerimeter=0;" edge="1" parent="1" source="vdluncQAAdoAozhhjYSL-1" target="vdluncQAAdoAozhhjYSL-6">
          <mxGeometry relative="1" as="geometry" />
        </mxCell>
        <mxCell id="vdluncQAAdoAozhhjYSL-1" value="INICIO" style="strokeWidth=2;html=1;shape=mxgraph.flowchart.start_1;whiteSpace=wrap;" vertex="1" parent="1">
          <mxGeometry x="364" y="20" width="100" height="60" as="geometry" />
        </mxCell>
        <mxCell id="vlH2Fg0dPawapllJiDyM-3" style="edgeStyle=orthogonalEdgeStyle;rounded=0;orthogonalLoop=1;jettySize=auto;html=1;exitX=0.5;exitY=1;exitDx=0;exitDy=0;entryX=0.5;entryY=0;entryDx=0;entryDy=0;" edge="1" parent="1" source="vdluncQAAdoAozhhjYSL-2" target="vdluncQAAdoAozhhjYSL-3">
          <mxGeometry relative="1" as="geometry" />
        </mxCell>
        <mxCell id="vdluncQAAdoAozhhjYSL-2" value="INICIALIZAR" style="shape=process;whiteSpace=wrap;html=1;backgroundOutline=1;" vertex="1" parent="1">
          <mxGeometry x="354" y="210" width="120" height="60" as="geometry" />
        </mxCell>
        <mxCell id="vlH2Fg0dPawapllJiDyM-4" style="edgeStyle=orthogonalEdgeStyle;rounded=0;orthogonalLoop=1;jettySize=auto;html=1;exitX=0.5;exitY=1;exitDx=0;exitDy=0;entryX=0.5;entryY=0;entryDx=0;entryDy=0;" edge="1" parent="1" source="vdluncQAAdoAozhhjYSL-3" target="vdluncQAAdoAozhhjYSL-4">
          <mxGeometry relative="1" as="geometry" />
        </mxCell>
        <mxCell id="vdluncQAAdoAozhhjYSL-3" value="PROCESSAR" style="shape=process;whiteSpace=wrap;html=1;backgroundOutline=1;" vertex="1" parent="1">
          <mxGeometry x="354" y="300" width="120" height="60" as="geometry" />
        </mxCell>
        <mxCell id="vdluncQAAdoAozhhjYSL-4" value="FINALIZAR" style="shape=process;whiteSpace=wrap;html=1;backgroundOutline=1;" vertex="1" parent="1">
          <mxGeometry x="354" y="380" width="120" height="60" as="geometry" />
        </mxCell>
        <mxCell id="vdluncQAAdoAozhhjYSL-5" value="FIM" style="strokeWidth=2;html=1;shape=mxgraph.flowchart.start_1;whiteSpace=wrap;" vertex="1" parent="1">
          <mxGeometry x="364" y="480" width="100" height="60" as="geometry" />
        </mxCell>
        <mxCell id="vlH2Fg0dPawapllJiDyM-2" style="edgeStyle=orthogonalEdgeStyle;rounded=0;orthogonalLoop=1;jettySize=auto;html=1;exitX=0.5;exitY=1;exitDx=0;exitDy=0;entryX=0.5;entryY=0;entryDx=0;entryDy=0;" edge="1" parent="1" source="vdluncQAAdoAozhhjYSL-6" target="vdluncQAAdoAozhhjYSL-2">
          <mxGeometry relative="1" as="geometry" />
        </mxCell>
        <mxCell id="vdluncQAAdoAozhhjYSL-6" value="FUNC&lt;div style=&quot;font-size: 6px;&quot;&gt;QTDE=0&lt;/div&gt;&lt;div style=&quot;font-size: 6px;&quot;&gt;QTDE_CLIENTES_PREMIUNS=0&lt;/div&gt;&lt;div style=&quot;font-size: 6px;&quot;&gt;SALDO_TOTAL&lt;/div&gt;" style="shape=parallelogram;perimeter=parallelogramPerimeter;whiteSpace=wrap;html=1;fixedSize=1;fontSize=6;" vertex="1" parent="1">
          <mxGeometry x="354" y="120" width="120" height="60" as="geometry" />
        </mxCell>
        <mxCell id="vlH2Fg0dPawapllJiDyM-5" style="edgeStyle=orthogonalEdgeStyle;rounded=0;orthogonalLoop=1;jettySize=auto;html=1;exitX=0.5;exitY=1;exitDx=0;exitDy=0;entryX=0.5;entryY=0;entryDx=0;entryDy=0;entryPerimeter=0;" edge="1" parent="1" source="vdluncQAAdoAozhhjYSL-4" target="vdluncQAAdoAozhhjYSL-5">
          <mxGeometry relative="1" as="geometry" />
        </mxCell>
      </root>
    </mxGraphModel>
  </diagram>
  <diagram id="4aKIgcEV98ObQt1Zit5Z" name="INICIALIZAR">
    <mxGraphModel dx="1050" dy="565" grid="1" gridSize="10" guides="1" tooltips="1" connect="1" arrows="1" fold="1" page="1" pageScale="1" pageWidth="827" pageHeight="1169" math="0" shadow="0">
      <root>
        <mxCell id="0" />
        <mxCell id="1" parent="0" />
        <mxCell id="EuLU9DnTUy5-7AKEgRQy-3" value="" style="edgeStyle=orthogonalEdgeStyle;rounded=0;orthogonalLoop=1;jettySize=auto;html=1;" edge="1" parent="1" source="EuLU9DnTUy5-7AKEgRQy-1" target="EuLU9DnTUy5-7AKEgRQy-2">
          <mxGeometry relative="1" as="geometry" />
        </mxCell>
        <mxCell id="EuLU9DnTUy5-7AKEgRQy-1" value="INICIALIZAR" style="strokeWidth=2;html=1;shape=mxgraph.flowchart.start_1;whiteSpace=wrap;" vertex="1" parent="1">
          <mxGeometry x="350" y="10" width="100" height="60" as="geometry" />
        </mxCell>
        <mxCell id="5-ZZccUsVHE_wBPR5-c7-1" style="edgeStyle=orthogonalEdgeStyle;rounded=0;orthogonalLoop=1;jettySize=auto;html=1;exitX=0.5;exitY=1;exitDx=0;exitDy=0;entryX=0.5;entryY=0;entryDx=0;entryDy=0;" edge="1" parent="1" source="EuLU9DnTUy5-7AKEgRQy-2" target="EuLU9DnTUy5-7AKEgRQy-4">
          <mxGeometry relative="1" as="geometry" />
        </mxCell>
        <mxCell id="EuLU9DnTUy5-7AKEgRQy-2" value="CAMINHO" style="shape=parallelogram;html=1;strokeWidth=2;perimeter=parallelogramPerimeter;whiteSpace=wrap;rounded=1;arcSize=12;size=0.23;" vertex="1" parent="1">
          <mxGeometry x="350" y="110" width="100" height="60" as="geometry" />
        </mxCell>
        <mxCell id="EuLU9DnTUy5-7AKEgRQy-4" value="CAMINHO = &quot; ./DADOS/CLIENTES.TXT&quot;&lt;div&gt;FUNC = ARQ.ABRIR_AQUIVO(CAMINHO, ARQ.MODO_LEITURA&lt;/div&gt;" style="rounded=1;whiteSpace=wrap;html=1;absoluteArcSize=1;arcSize=14;strokeWidth=2;labelPosition=center;verticalLabelPosition=middle;align=center;verticalAlign=middle;" vertex="1" parent="1">
          <mxGeometry x="277.5" y="210" width="245" height="100" as="geometry" />
        </mxCell>
        <mxCell id="5-ZZccUsVHE_wBPR5-c7-2" value="FIM" style="strokeWidth=2;html=1;shape=mxgraph.flowchart.start_1;whiteSpace=wrap;" vertex="1" parent="1">
          <mxGeometry x="350" y="350" width="100" height="60" as="geometry" />
        </mxCell>
        <mxCell id="5-ZZccUsVHE_wBPR5-c7-3" style="edgeStyle=orthogonalEdgeStyle;rounded=0;orthogonalLoop=1;jettySize=auto;html=1;exitX=0.5;exitY=1;exitDx=0;exitDy=0;entryX=0.5;entryY=0;entryDx=0;entryDy=0;entryPerimeter=0;" edge="1" parent="1" source="EuLU9DnTUy5-7AKEgRQy-4" target="5-ZZccUsVHE_wBPR5-c7-2">
          <mxGeometry relative="1" as="geometry" />
        </mxCell>
      </root>
    </mxGraphModel>
  </diagram>
  <diagram id="i5APPjOQKpyIQIIcJQu-" name="PROCESSAR">
    <mxGraphModel dx="1050" dy="565" grid="1" gridSize="10" guides="1" tooltips="1" connect="1" arrows="1" fold="1" page="1" pageScale="1" pageWidth="827" pageHeight="1169" math="0" shadow="0">
      <root>
        <mxCell id="0" />
        <mxCell id="1" parent="0" />
        <mxCell id="SCeEjyu9QHsgcVf-JXS8-1" style="edgeStyle=orthogonalEdgeStyle;rounded=0;orthogonalLoop=1;jettySize=auto;html=1;exitX=0.5;exitY=1;exitDx=0;exitDy=0;entryX=0.5;entryY=0;entryDx=0;entryDy=0;" edge="1" parent="1" source="_9B5TIqbkQ0KdJa8W2XY-1" target="_9B5TIqbkQ0KdJa8W2XY-3">
          <mxGeometry relative="1" as="geometry" />
        </mxCell>
        <mxCell id="_9B5TIqbkQ0KdJa8W2XY-1" value="PROCESSAR" style="ellipse;whiteSpace=wrap;html=1;" vertex="1" parent="1">
          <mxGeometry x="140" y="30" width="120" height="80" as="geometry" />
        </mxCell>
        <mxCell id="_9B5TIqbkQ0KdJa8W2XY-2" value="FIM" style="ellipse;whiteSpace=wrap;html=1;" vertex="1" parent="1">
          <mxGeometry x="140" y="470" width="120" height="80" as="geometry" />
        </mxCell>
        <mxCell id="UKhpVUwmoA_F72px8H6v-7" value="" style="edgeStyle=orthogonalEdgeStyle;rounded=0;orthogonalLoop=1;jettySize=auto;html=1;" edge="1" parent="1" source="_9B5TIqbkQ0KdJa8W2XY-3" target="_9B5TIqbkQ0KdJa8W2XY-5">
          <mxGeometry relative="1" as="geometry" />
        </mxCell>
        <mxCell id="_9B5TIqbkQ0KdJa8W2XY-3" value="&lt;div&gt;&lt;br&gt;&lt;/div&gt;LINHA&lt;div&gt;SALDO&lt;/div&gt;&lt;div&gt;SOMA&lt;/div&gt;&lt;div&gt;&lt;br&gt;&lt;/div&gt;" style="shape=parallelogram;perimeter=parallelogramPerimeter;whiteSpace=wrap;html=1;fixedSize=1;" vertex="1" parent="1">
          <mxGeometry x="140" y="140" width="120" height="60" as="geometry" />
        </mxCell>
        <mxCell id="_9B5TIqbkQ0KdJa8W2XY-9" style="edgeStyle=orthogonalEdgeStyle;rounded=0;orthogonalLoop=1;jettySize=auto;html=1;exitX=1;exitY=0.5;exitDx=0;exitDy=0;entryX=0;entryY=0.5;entryDx=0;entryDy=0;" edge="1" parent="1" source="_9B5TIqbkQ0KdJa8W2XY-4" target="_9B5TIqbkQ0KdJa8W2XY-6">
          <mxGeometry relative="1" as="geometry" />
        </mxCell>
        <mxCell id="UKhpVUwmoA_F72px8H6v-6" style="edgeStyle=orthogonalEdgeStyle;rounded=0;orthogonalLoop=1;jettySize=auto;html=1;exitX=0.5;exitY=1;exitDx=0;exitDy=0;entryX=0.5;entryY=0;entryDx=0;entryDy=0;" edge="1" parent="1" source="_9B5TIqbkQ0KdJa8W2XY-4" target="_9B5TIqbkQ0KdJa8W2XY-2">
          <mxGeometry relative="1" as="geometry">
            <mxPoint x="200" y="360" as="targetPoint" />
          </mxGeometry>
        </mxCell>
        <mxCell id="_9B5TIqbkQ0KdJa8W2XY-4" value="NAO FIM_ARQUIVO(FUNC)" style="rounded=1;whiteSpace=wrap;html=1;absoluteArcSize=1;arcSize=14;strokeWidth=2;fontSize=9;" vertex="1" parent="1">
          <mxGeometry x="150" y="280" width="100" height="50" as="geometry" />
        </mxCell>
        <mxCell id="GhEXE1HHzlQ57Qp6lWTe-1" style="edgeStyle=orthogonalEdgeStyle;rounded=0;orthogonalLoop=1;jettySize=auto;html=1;exitX=0.5;exitY=1;exitDx=0;exitDy=0;exitPerimeter=0;entryX=0.5;entryY=0;entryDx=0;entryDy=0;" edge="1" parent="1" source="_9B5TIqbkQ0KdJa8W2XY-5" target="_9B5TIqbkQ0KdJa8W2XY-4">
          <mxGeometry relative="1" as="geometry" />
        </mxCell>
        <mxCell id="_9B5TIqbkQ0KdJa8W2XY-5" value="" style="strokeWidth=2;html=1;shape=mxgraph.flowchart.start_2;whiteSpace=wrap;" vertex="1" parent="1">
          <mxGeometry x="190" y="230" width="20" height="20" as="geometry" />
        </mxCell>
        <mxCell id="_9B5TIqbkQ0KdJa8W2XY-6" value="&lt;font style=&quot;font-size: 6px;&quot;&gt;LINHA =ARQ.LER_LINHA(FUNC)&lt;/font&gt;&lt;div style=&quot;font-size: 6px;&quot;&gt;&lt;font style=&quot;font-size: 6px;&quot;&gt;QTDE = TEX.NUMERO_CARACTERES(LINHA)&lt;/font&gt;&lt;/div&gt;" style="rounded=1;whiteSpace=wrap;html=1;absoluteArcSize=1;arcSize=14;strokeWidth=2;fontSize=6;verticalAlign=middle;labelPosition=center;verticalLabelPosition=middle;align=center;horizontal=1;" vertex="1" parent="1">
          <mxGeometry x="310" y="280" width="120" height="50" as="geometry" />
        </mxCell>
        <mxCell id="_9B5TIqbkQ0KdJa8W2XY-10" value="QTDE&amp;gt;0" style="strokeWidth=2;html=1;shape=mxgraph.flowchart.decision;whiteSpace=wrap;" vertex="1" parent="1">
          <mxGeometry x="524" y="255" width="100" height="100" as="geometry" />
        </mxCell>
        <mxCell id="_9B5TIqbkQ0KdJa8W2XY-11" style="edgeStyle=orthogonalEdgeStyle;rounded=0;orthogonalLoop=1;jettySize=auto;html=1;exitX=1;exitY=0.5;exitDx=0;exitDy=0;entryX=0;entryY=0.5;entryDx=0;entryDy=0;entryPerimeter=0;" edge="1" parent="1" source="_9B5TIqbkQ0KdJa8W2XY-6" target="_9B5TIqbkQ0KdJa8W2XY-10">
          <mxGeometry relative="1" as="geometry" />
        </mxCell>
        <mxCell id="_9B5TIqbkQ0KdJa8W2XY-12" value="QTDE_CLIENTESPREMIUNS++&lt;div&gt;SALDO = TXT.EXTRAIR_SUBTEXTO(LINHA,10,14)&lt;/div&gt;&lt;div&gt;SOMA = TP.CADEIA_PARA_INTEIRO(SALDO,10)&lt;/div&gt;&lt;div&gt;SALDO_TOTAL+=SOMA&lt;/div&gt;" style="rounded=1;whiteSpace=wrap;html=1;absoluteArcSize=1;arcSize=14;strokeWidth=2;labelPosition=left;verticalLabelPosition=middle;align=right;verticalAlign=middle;" vertex="1" parent="1">
          <mxGeometry x="524" y="550" width="100" height="100" as="geometry" />
        </mxCell>
        <mxCell id="UKhpVUwmoA_F72px8H6v-4" style="edgeStyle=orthogonalEdgeStyle;rounded=0;orthogonalLoop=1;jettySize=auto;html=1;exitX=0.5;exitY=1;exitDx=0;exitDy=0;exitPerimeter=0;entryX=0.5;entryY=0;entryDx=0;entryDy=0;" edge="1" parent="1" source="UKhpVUwmoA_F72px8H6v-1" target="_9B5TIqbkQ0KdJa8W2XY-12">
          <mxGeometry relative="1" as="geometry" />
        </mxCell>
        <mxCell id="UKhpVUwmoA_F72px8H6v-1" value="TXT.EXTRAIR_SUBTEXTO(LINHA,25,26) ==&quot;P&quot;&amp;nbsp; &amp;nbsp;" style="strokeWidth=2;html=1;shape=mxgraph.flowchart.decision;whiteSpace=wrap;labelPosition=left;verticalLabelPosition=middle;align=right;verticalAlign=middle;" vertex="1" parent="1">
          <mxGeometry x="524" y="400" width="100" height="100" as="geometry" />
        </mxCell>
        <mxCell id="UKhpVUwmoA_F72px8H6v-2" style="edgeStyle=orthogonalEdgeStyle;rounded=0;orthogonalLoop=1;jettySize=auto;html=1;exitX=0.5;exitY=1;exitDx=0;exitDy=0;exitPerimeter=0;entryX=0.5;entryY=0;entryDx=0;entryDy=0;entryPerimeter=0;" edge="1" parent="1" source="_9B5TIqbkQ0KdJa8W2XY-10" target="UKhpVUwmoA_F72px8H6v-1">
          <mxGeometry relative="1" as="geometry" />
        </mxCell>
        <mxCell id="UKhpVUwmoA_F72px8H6v-3" value="SIM" style="edgeLabel;html=1;align=center;verticalAlign=middle;resizable=0;points=[];" vertex="1" connectable="0" parent="UKhpVUwmoA_F72px8H6v-2">
          <mxGeometry x="-0.1378" y="-2" relative="1" as="geometry">
            <mxPoint as="offset" />
          </mxGeometry>
        </mxCell>
        <mxCell id="UKhpVUwmoA_F72px8H6v-5" style="edgeStyle=orthogonalEdgeStyle;rounded=0;orthogonalLoop=1;jettySize=auto;html=1;exitX=1;exitY=0.5;exitDx=0;exitDy=0;entryX=1;entryY=0.5;entryDx=0;entryDy=0;entryPerimeter=0;" edge="1" parent="1" source="_9B5TIqbkQ0KdJa8W2XY-12" target="_9B5TIqbkQ0KdJa8W2XY-5">
          <mxGeometry relative="1" as="geometry">
            <Array as="points">
              <mxPoint x="670" y="600" />
              <mxPoint x="670" y="230" />
              <mxPoint x="210" y="230" />
            </Array>
          </mxGeometry>
        </mxCell>
      </root>
    </mxGraphModel>
  </diagram>
  <diagram id="uKLUC1XGpCEGdSofqcca" name="FINALIZAR">
    <mxGraphModel dx="1050" dy="565" grid="1" gridSize="10" guides="1" tooltips="1" connect="1" arrows="1" fold="1" page="1" pageScale="1" pageWidth="827" pageHeight="1169" math="0" shadow="0">
      <root>
        <mxCell id="0" />
        <mxCell id="1" parent="0" />
        <mxCell id="AUdXICE-OqCCzo4Hdc-l-2" style="edgeStyle=orthogonalEdgeStyle;rounded=0;orthogonalLoop=1;jettySize=auto;html=1;exitX=0.5;exitY=1;exitDx=0;exitDy=0;exitPerimeter=0;" edge="1" parent="1" source="c0L45pWDhSAvFFWUD_HO-1" target="AUdXICE-OqCCzo4Hdc-l-1">
          <mxGeometry relative="1" as="geometry" />
        </mxCell>
        <mxCell id="c0L45pWDhSAvFFWUD_HO-1" value="FINALIZAR" style="strokeWidth=2;html=1;shape=mxgraph.flowchart.start_1;whiteSpace=wrap;" vertex="1" parent="1">
          <mxGeometry x="350" y="10" width="100" height="60" as="geometry" />
        </mxCell>
        <mxCell id="AUdXICE-OqCCzo4Hdc-l-1" value="ARQ.FECHAR_ARQUIVO(FUNC)" style="rounded=1;whiteSpace=wrap;html=1;absoluteArcSize=1;arcSize=14;strokeWidth=2;labelPosition=left;verticalLabelPosition=middle;align=right;verticalAlign=middle;" vertex="1" parent="1">
          <mxGeometry x="350" y="110" width="100" height="40" as="geometry" />
        </mxCell>
        <mxCell id="AUdXICE-OqCCzo4Hdc-l-6" value="" style="edgeStyle=orthogonalEdgeStyle;rounded=0;orthogonalLoop=1;jettySize=auto;html=1;" edge="1" parent="1" source="AUdXICE-OqCCzo4Hdc-l-3" target="AUdXICE-OqCCzo4Hdc-l-5">
          <mxGeometry relative="1" as="geometry" />
        </mxCell>
        <mxCell id="AUdXICE-OqCCzo4Hdc-l-3" value="QUANTIDADE_CLIENTES_PREMIUNS&lt;div&gt;SALDO_TOTAL&lt;/div&gt;" style="strokeWidth=2;html=1;shape=mxgraph.flowchart.display;whiteSpace=wrap;labelPosition=left;verticalLabelPosition=middle;align=right;verticalAlign=middle;" vertex="1" parent="1">
          <mxGeometry x="350" y="200" width="100" height="60" as="geometry" />
        </mxCell>
        <mxCell id="AUdXICE-OqCCzo4Hdc-l-4" style="edgeStyle=orthogonalEdgeStyle;rounded=0;orthogonalLoop=1;jettySize=auto;html=1;exitX=0.5;exitY=1;exitDx=0;exitDy=0;entryX=0.5;entryY=0;entryDx=0;entryDy=0;entryPerimeter=0;" edge="1" parent="1" source="AUdXICE-OqCCzo4Hdc-l-1" target="AUdXICE-OqCCzo4Hdc-l-3">
          <mxGeometry relative="1" as="geometry" />
        </mxCell>
        <mxCell id="AUdXICE-OqCCzo4Hdc-l-5" value="fim" style="strokeWidth=2;html=1;shape=mxgraph.flowchart.start_1;whiteSpace=wrap;" vertex="1" parent="1">
          <mxGeometry x="350" y="300" width="100" height="60" as="geometry" />
        </mxCell>
      </root>
    </mxGraphModel>
  </diagram>
</mxfile>
